<?xml version="1.0" encoding="UTF-8"?>
<svg width="80px" height="80px" viewBox="0 0 80 80" version="1.1" xmlns="http://www.w3.org/2000/svg" xmlns:xlink="http://www.w3.org/1999/xlink">
    <!-- Generator: Sketch 50.2 (55047) - http://www.bohemiancoding.com/sketch -->
    <title>Combined Shape</title>
    <desc>Created with Sketch.</desc>
    <defs></defs>
    <g id="Page-2" stroke="none" stroke-width="1" fill="none" fill-rule="evenodd">
        <g id="Artboard-5" transform="translate(-10.000000, -10.000000)" fill="#D24155" fill-rule="nonzero">
            <path d="M50,90 C27.90861,90 10,72.09139 10,50 C10,27.90861 27.90861,10 50,10 C72.09139,10 90,27.90861 90,50 C90,72.09139 72.09139,90 50,90 Z M50,82.8888889 C68.1640318,82.8888889 82.8888889,68.1640318 82.8888889,50 C82.8888889,31.8359682 68.1640318,17.1111111 50,17.1111111 C31.8359682,17.1111111 17.1111111,31.8359682 17.1111111,50 C17.1111111,68.1640318 31.8359682,82.8888889 50,82.8888889 Z M55.0283149,50 L65.713484,60.6851691 C67.1020148,62.0737 67.1020148,64.3249532 65.713484,65.713484 L65.713484,65.713484 C64.3249532,67.1020148 62.0737,67.1020148 60.6851691,65.713484 L50,55.0283149 L39.3148309,65.713484 C37.9263,67.1020148 35.6750468,67.1020148 34.286516,65.713484 L34.286516,65.713484 C32.8979852,64.3249532 32.8979852,62.0737 34.286516,60.6851691 L44.9716851,50 L34.286516,39.3148309 C32.8979852,37.9263 32.8979852,35.6750468 34.286516,34.286516 L34.286516,34.286516 C35.6750468,32.8979852 37.9263,32.8979852 39.3148309,34.286516 L50,44.9716851 L60.6851691,34.286516 C62.0737,32.8979852 64.3249532,32.8979852 65.713484,34.286516 L65.713484,34.286516 C67.1020148,35.6750468 67.1020148,37.9263 65.713484,39.3148309 L55.0283149,50 Z" id="Combined-Shape"></path>
        </g>
    </g>
</svg>